<svg width="90" height="50" viewBox="0 0 90 50" fill="none" xmlns="http://www.w3.org/2000/svg">
<g clip-path="url(#clip0_16_6448)">
<path d="M28.47 19.5337L27.873 22.4082C33.4935 22.3026 51.8975 15.6903 52.7424 11.6908L53.0225 10.3133C46.695 14.726 33.5577 19.5613 28.47 19.5337ZM29.6501 14.6939L29.1037 17.3434C34.6919 17.3434 53.1281 10.6209 53.973 6.62605L54.2072 5.48268C46.0429 11.1398 34.6047 14.5607 29.6501 14.6939ZM55.1394 0.918396C47.2368 6.18982 35.4037 9.71636 30.7659 9.73013L30.169 12.6092C35.9639 12.5863 54.1843 5.88676 55.0384 1.89187L55.1486 1.37758C55.1853 1.20309 55.222 1.0286 55.2404 0.918396H55.1394Z" fill="url(#paint0_linear_16_6448)"/>
<path d="M0.555413 28.4098H2.67225V35.8164H2.72276C3.1278 35.1222 3.71604 34.5527 4.42308 34.1705C5.13013 33.7882 5.92872 33.6078 6.73143 33.6491C9.65643 33.6491 11.7182 36.0828 11.6952 39.6598C11.6952 43.8659 9.04572 45.9552 6.41919 45.9552C5.61815 46.0004 4.82099 45.8145 4.12254 45.4197C3.4241 45.0249 2.85376 44.4378 2.47939 43.7282H2.40133L2.29572 45.6751H0.458984C0.509495 44.8715 0.555413 43.6776 0.555413 42.6353V28.4098ZM2.67225 40.9547C2.67549 41.2169 2.70316 41.4782 2.7549 41.7353C2.93361 42.4518 3.34738 43.0877 3.93007 43.5414C4.51276 43.9951 5.23072 44.2403 5.96919 44.2378C8.21 44.2378 9.54623 42.4011 9.54623 39.7149C9.54623 37.3547 8.32939 35.3389 6.04266 35.3389C5.28487 35.353 4.5533 35.6187 3.96309 36.0942C3.37287 36.5697 2.95754 37.228 2.78245 37.9654C2.71327 38.253 2.67327 38.5468 2.66307 38.8424" fill="#165780"/>
<path d="M22.3706 42.851C22.3562 43.7961 22.4207 44.7407 22.5634 45.675H20.6211L20.4512 44.1918H20.3777C19.9593 44.7479 19.4147 45.1966 18.7887 45.5008C18.1628 45.8049 17.4735 45.956 16.7777 45.9413C14.3946 45.9413 13.1777 44.2653 13.1777 42.5617C13.1777 39.7148 15.7078 38.1582 20.2538 38.1857V37.9423C20.2538 36.9689 19.9874 35.2194 17.5813 35.2194C16.4978 35.2203 15.4358 35.5223 14.514 36.0918L14.0272 34.6821C15.1973 33.9773 16.5415 33.6146 17.9073 33.6352C21.5119 33.6352 22.3844 36.0918 22.3844 38.452L22.3706 42.851ZM20.3043 39.6689C17.967 39.6184 15.3175 40.0316 15.3175 42.3184C15.295 42.5904 15.3316 42.8642 15.4248 43.1208C15.518 43.3774 15.6657 43.6107 15.8576 43.8049C16.0496 43.999 16.2813 44.1493 16.5368 44.2454C16.7923 44.3415 17.0656 44.3812 17.3379 44.3617C17.9633 44.3824 18.5788 44.2023 19.0944 43.8478C19.61 43.4934 19.9986 42.9831 20.2032 42.3918C20.2794 42.1731 20.3213 41.9438 20.3272 41.7122" fill="#165780"/>
<path d="M25.655 37.0882C25.655 35.8714 25.655 34.8796 25.5586 33.9015H27.455L27.579 35.8484H27.6249C28.0117 35.1606 28.5786 34.5912 29.2646 34.2013C29.9506 33.8113 30.7299 33.6156 31.5188 33.6352C33.1443 33.6352 35.679 34.6087 35.679 38.6449V45.675H33.5208V38.8882C33.5208 36.9918 32.8183 35.4122 30.7979 35.4122C30.1488 35.4224 29.5201 35.64 29.0037 36.0333C28.4872 36.4266 28.1103 36.9749 27.928 37.5979C27.825 37.9214 27.7754 38.2595 27.781 38.599V45.675H25.655" fill="#165780"/>
<path d="M40.9267 39.3016H40.9772C41.2711 38.8884 41.6844 38.3833 42.0241 37.9654L45.4588 33.9016H48.0349L43.4889 38.746L48.6731 45.6751H46.0833L42.0241 40.0317L40.9267 41.2486V45.6751H38.8145V28.4098H40.9267" fill="#165780"/>
<path d="M66.3193 34.3194C66.2413 34.2276 66.1632 34.1312 66.076 34.0439C65.935 33.896 65.7814 33.7608 65.6168 33.6398C64.7466 32.9051 63.647 32.4974 62.5081 32.4873C61.2756 32.5021 60.0931 32.977 59.1928 33.8189L59.1147 33.8694C59.0955 33.8827 59.0738 33.892 59.051 33.8967C59.0281 33.9014 59.0045 33.9015 58.9816 33.897C58.8903 33.8672 58.8106 33.8096 58.7537 33.7321C58.6969 33.6547 58.6658 33.5614 58.6648 33.4653V28.6531C58.6648 28.5807 58.6505 28.5091 58.6228 28.4422C58.5951 28.3754 58.5545 28.3146 58.5034 28.2635C58.4522 28.2123 58.3914 28.1717 58.3246 28.144C58.2577 28.1163 58.1861 28.1021 58.1137 28.1021H55.7719C55.6995 28.1021 55.6279 28.1163 55.561 28.144C55.4942 28.1717 55.4334 28.2123 55.3823 28.2635C55.3311 28.3146 55.2905 28.3754 55.2628 28.4422C55.2351 28.5091 55.2209 28.5807 55.2209 28.6531V28.8184V44.8898C55.219 44.9643 55.2322 45.0385 55.2596 45.1078C55.2869 45.1771 55.328 45.2402 55.3803 45.2933C55.4325 45.3464 55.4949 45.3885 55.5638 45.417C55.6327 45.4455 55.7066 45.4599 55.7811 45.4592H57.9025C58.0325 45.4587 58.158 45.4114 58.2561 45.3261C58.3002 45.2865 58.3374 45.24 58.3663 45.1883C58.4035 45.1201 58.4269 45.0452 58.4352 44.9679C58.4765 44.6281 58.7107 44.4352 58.8576 44.5087C58.91 44.5257 58.9595 44.5505 59.0045 44.5822L59.1469 44.6786C59.5471 44.9652 59.9711 45.2172 60.4142 45.4317C61.0339 45.6782 61.6943 45.8059 62.3612 45.8082C62.9408 45.8095 63.5176 45.7275 64.0739 45.5648C64.2317 45.5279 64.3855 45.4756 64.5331 45.4087C65.2044 45.133 65.7986 44.698 66.2642 44.1414C66.7125 43.5856 67.0761 42.9667 67.3433 42.3046C67.7934 41.3093 68.0237 40.2286 68.0183 39.1363C68.0406 37.3938 67.4342 35.7016 66.3102 34.3699L66.3193 34.3194ZM61.4841 43.3057C59.7668 43.3057 58.3755 41.4689 58.3755 39.173C58.3755 36.8771 59.753 35.0403 61.4841 35.0403C63.2153 35.0403 64.5882 36.8771 64.5882 39.173C64.5882 41.4689 63.2107 43.3057 61.4841 43.3057Z" fill="#165780"/>
<path d="M74.1267 33.8695C74.1267 33.8373 74.1267 33.8052 74.1267 33.7776V33.3644C74.1267 33.217 74.0682 33.0757 73.964 32.9715C73.8598 32.8673 73.7185 32.8088 73.5711 32.8088H71.2109C71.1375 32.8082 71.0648 32.8221 70.9969 32.8497C70.9289 32.8774 70.8671 32.9182 70.815 32.9699C70.763 33.0215 70.7216 33.083 70.6934 33.1507C70.6652 33.2184 70.6507 33.291 70.6507 33.3644V46.0838C70.6024 46.2957 70.496 46.4899 70.3436 46.6448C70.1911 46.7997 69.9985 46.9091 69.7874 46.9608C69.5825 47.0245 69.3682 47.0525 69.1537 47.0435C69.0595 47.0289 68.9631 47.0463 68.8798 47.0929C68.7966 47.1395 68.7314 47.2126 68.6946 47.3006C68.6585 47.4032 68.6338 47.5094 68.6211 47.6174C68.6211 47.746 68.6211 49.1098 68.6211 49.2246C68.6266 49.3234 68.6468 49.4209 68.6808 49.5139C68.7419 49.5944 68.8184 49.6618 68.9059 49.7123C68.9935 49.7628 69.0902 49.7952 69.1905 49.8077C70.0977 49.8473 71.0063 49.7733 71.8951 49.5873C72.2687 49.4921 72.6178 49.3184 72.9191 49.0776C73.2057 48.8525 73.4525 48.5809 73.6492 48.2741C73.9087 47.8277 74.0465 47.321 74.0486 46.8047C74.0486 46.6256 74.09 46.1572 74.09 46.1021V34.5491C74.09 34.4848 74.09 34.4251 74.09 34.3562C74.0992 34.1941 74.0992 34.0316 74.09 33.8695" fill="#165780"/>
<path d="M87.9891 34.3194C87.9064 34.2276 87.8284 34.1312 87.7457 34.0439C87.6047 33.8962 87.451 33.761 87.2865 33.6398C86.4171 32.9037 85.317 32.4958 84.1779 32.4873C82.9455 32.503 81.7634 32.9778 80.8626 33.8189L80.7845 33.8694C80.7661 33.8826 80.7452 33.8918 80.7231 33.8965C80.701 33.9013 80.6781 33.9014 80.6559 33.897C80.5638 33.868 80.4831 33.8107 80.4254 33.7332C80.3676 33.6557 80.3359 33.562 80.3345 33.4653V28.6531C80.3351 28.581 80.3214 28.5094 80.2942 28.4426C80.267 28.3758 80.2269 28.315 80.1761 28.2637C80.1253 28.2125 80.0648 28.1719 79.9982 28.1441C79.9317 28.1164 79.8602 28.1021 79.7881 28.1021H77.4416C77.3693 28.1021 77.2976 28.1163 77.2308 28.144C77.1639 28.1717 77.1032 28.2123 77.052 28.2635C77.0008 28.3146 76.9603 28.3754 76.9326 28.4422C76.9049 28.5091 76.8906 28.5807 76.8906 28.6531V44.9128C76.8942 45.059 76.9548 45.1979 77.0595 45.3C77.1642 45.4021 77.3046 45.4593 77.4508 45.4592H79.5677C79.6992 45.4594 79.8264 45.4121 79.9258 45.3261C79.9686 45.2853 80.0056 45.2389 80.036 45.1883C80.0732 45.1201 80.0966 45.0452 80.1049 44.9679C80.1462 44.6281 80.3804 44.4352 80.5228 44.5087C80.5755 44.5248 80.6252 44.5496 80.6697 44.5822L80.8166 44.6786C81.2151 44.9654 81.6376 45.2174 82.0794 45.4317C82.699 45.6782 83.3595 45.8059 84.0263 45.8082C84.6074 45.8088 85.1856 45.7268 85.7437 45.5648C85.901 45.5264 86.0547 45.4742 86.2029 45.4087C86.8729 45.133 87.4655 44.698 87.9294 44.1414C88.3792 43.5867 88.743 42.9675 89.0085 42.3046C89.46 41.3096 89.6918 40.229 89.6881 39.1363C89.7083 37.3941 89.1021 35.7027 87.9799 34.3699L87.9891 34.3194ZM83.1539 43.3057C81.4365 43.3057 80.0452 41.4689 80.0452 39.173C80.0452 36.8771 81.4228 35.0403 83.1539 35.0403C84.885 35.0403 86.258 36.8771 86.258 39.173C86.258 41.4689 84.8804 43.3057 83.1539 43.3057Z" fill="#165780"/>
<path d="M72.3344 28.2444C72.0255 28.2428 71.7216 28.3219 71.4528 28.4739C71.2069 28.6192 71.0053 28.8288 70.8696 29.0801C70.727 29.3369 70.6541 29.6266 70.6584 29.9204C70.6555 30.207 70.725 30.4897 70.8604 30.7423C70.9917 30.9881 71.1848 31.1954 71.4206 31.3438C71.6799 31.4943 71.975 31.572 72.2747 31.5688C72.595 31.5734 72.9111 31.4959 73.1931 31.3438C73.4394 31.2084 73.6442 31.0084 73.7854 30.7653C73.9194 30.5123 73.9873 30.2296 73.9829 29.9433C73.9857 29.6509 73.9163 29.3622 73.7808 29.103C73.653 28.8434 73.456 28.6241 73.2114 28.4694C72.9449 28.3156 72.642 28.2364 72.3344 28.2398" fill="#165780"/>
</g>
<defs>
<linearGradient id="paint0_linear_16_6448" x1="55.2404" y1="5.87759" x2="27.6124" y2="6.59594" gradientUnits="userSpaceOnUse">
<stop stop-color="#EDC817"/>
<stop offset="0.538696" stop-color="#14517D"/>
<stop offset="1" stop-color="#2EA0DE"/>
</linearGradient>
<clipPath id="clip0_16_6448">
<rect width="90" height="50" fill="white"/>
</clipPath>
</defs>
</svg>
